<svg width="64" height="64" viewBox="0 0 64 64" fill="none" xmlns="http://www.w3.org/2000/svg" role="img" aria-label="Bike"><title>Bike</title><circle cx="17" cy="46" r="8" fill="#111827"/><circle cx="17" cy="46" r="3" fill="#E5E7EB"/><circle cx="48" cy="46" r="8" fill="#111827"/><circle cx="48" cy="46" r="3" fill="#E5E7EB"/><path d="M20 39H36L43 46H27L20 39Z" fill="#20C66B"/><path d="M30 34H43C47.4 34 51 37.6 51 42V46H43L36 39H27L30 34Z" fill="#27AE60"/><path d="M24 34H32L29 39H17L20 36C21.1 34.7 22.5 34 24 34Z" fill="#F2C94C"/><path d="M39 29H48L53 34" stroke="#111827" stroke-width="3" stroke-linecap="round" stroke-linejoin="round"/><path d="M32 34L37 28H43" stroke="#111827" stroke-width="3" stroke-linecap="round" stroke-linejoin="round"/><path d="M21 39H36L43 46M27 46H40M51 46H57M8 46H10M29 39L34 34" stroke="#111827" stroke-width="2.4" stroke-linecap="round" stroke-linejoin="round"/><path d="M23 28C23 25.791 24.791 24 27 24H30C32.209 24 34 25.791 34 28V34H23V28Z" fill="#F2994A"/><path d="M26 22H31" stroke="#111827" stroke-width="2.4" stroke-linecap="round"/></svg>