<svg width="64" height="64" viewBox="0 0 64 64" fill="none" xmlns="http://www.w3.org/2000/svg" role="img" aria-label="Mini car"><title>Mini car</title><path d="M12 35H52C55.314 35 58 37.686 58 41V45H6V41C6 37.686 8.686 35 12 35Z" fill="#E9EEF5"/><path d="M18 25H40C43.2 25 46.1 26.9 47.4 29.8L50 35H13L16.2 28.6C16.9 26.4 17.9 25 18 25Z" fill="#F7FAFC"/><path d="M20 28H29V35H16L18.6 29.8C18.9 28.7 19.5 28 20 28Z" fill="#202633"/><path d="M32 28H39.6C41.6 28 43.4 29.2 44.2 31L46 35H32V28Z" fill="#202633"/><circle cx="18" cy="45" r="7" fill="#111827"/><circle cx="18" cy="45" r="3" fill="#DDE3EA"/><circle cx="47" cy="45" r="7" fill="#111827"/><circle cx="47" cy="45" r="3" fill="#DDE3EA"/><path d="M12 35L16 27.2C16.9 25.2 18.9 24 21.1 24H39.7C43.7 24 47.3 26.3 49 29.9L51.4 35H54C57.3 35 60 37.7 60 41V45H54M11 45H4V41C4 37.7 6.7 35 10 35H12ZM25 45H40" stroke="#111827" stroke-width="2.4" stroke-linecap="round" stroke-linejoin="round"/></svg>