<svg width="96" height="64" viewBox="0 0 96 64" fill="none" xmlns="http://www.w3.org/2000/svg" role="img" aria-label="Premium sedan">
  <title>Premium sedan</title>
  <path d="M13 40H84V50H9V44C9 41.8 10.8 40 13 40Z" fill="#374151"/>
  <path d="M23 31H64C70.2 31 75.8 34.6 78.4 40.2H16.5L20 34C20.8 32.1 22.1 31 23 31Z" fill="#6B7280"/>
  <path d="M29 24H62C68.3 24 74 27.7 76.5 33.5L79.3 40H18L22.3 29.7C23.5 26.3 26.1 24 29 24Z" fill="#F8FAFC"/>
  <path d="M31 29H48V40H23L26.5 31.5C27.1 30 28.7 29 31 29Z" fill="#1F2937"/>
  <path d="M52 29H63C66.3 29 69.3 30.9 70.7 33.9L73.5 40H52V29Z" fill="#1F2937"/>
  <path d="M69 16L72.4 21.2L78.5 22.7L74.5 27.4L75 33.7L69 31.2L63 33.7L63.5 27.4L59.5 22.7L65.6 21.2L69 16Z" fill="#2F80ED"/>
  <circle cx="29" cy="50" r="8" fill="#111827"/>
  <circle cx="29" cy="50" r="3.5" fill="#E5E7EB"/>
  <circle cx="72" cy="50" r="8" fill="#111827"/>
  <circle cx="72" cy="50" r="3.5" fill="#E5E7EB"/>
  <path d="M18 40L22.8 28.5C24.1 25.2 27.3 23 30.8 23H62C68.8 23 75 27 77.7 33.3L80.6 40H84C87.9 40 91 43.1 91 47V50H80M18 50H8V47C8 43.1 11.1 40 15 40H18ZM38 50H63" stroke="#111827" stroke-width="3" stroke-linecap="round" stroke-linejoin="round"/>
</svg>