<svg width="64" height="64" viewBox="0 0 64 64" fill="none" xmlns="http://www.w3.org/2000/svg" role="img" aria-label="Rickshaw"><title>Rickshaw</title><path d="M14 24H39C42.314 24 45 26.686 45 30V45H10V28C10 25.791 11.791 24 14 24Z" fill="#20C66B"/><path d="M12 24H38C40 24 42 26 42 29V31H10V26C10 24.895 10.895 24 12 24Z" fill="#19B45E"/><path d="M18 28H30V40H15V31C15 29.343 16.343 28 18 28Z" fill="#101827"/><path d="M33 28H39C40.105 28 41 28.895 41 30V40H33V28Z" fill="#101827"/><path d="M45 34H53C55.209 34 57 35.791 57 38V45H45V34Z" fill="#6F7785"/><circle cx="17" cy="46" r="7" fill="#111827"/><circle cx="17" cy="46" r="3" fill="#E5E7EB"/><circle cx="45" cy="46" r="7" fill="#111827"/><circle cx="45" cy="46" r="3" fill="#E5E7EB"/><path d="M8 45V28C8 24.686 10.686 22 14 22H39C43.418 22 47 25.582 47 30V45M47 34H53C56.314 34 59 36.686 59 40V45H52M24 45H38M10 45H7" stroke="#111827" stroke-width="2.4" stroke-linecap="round" stroke-linejoin="round"/></svg>